<svg width="111" height="30" viewBox="0 0 111 30" fill="none" xmlns="http://www.w3.org/2000/svg">
<path d="M50.2559 15.2959C48.8086 14.8799 47.7539 14.3701 47.0918 13.7666C46.4355 13.1572 46.1074 12.4072 46.1074 11.5166C46.1074 10.5088 46.5088 9.67676 47.3115 9.02051C48.1201 8.3584 49.1689 8.02734 50.458 8.02734C51.3369 8.02734 52.1191 8.19727 52.8047 8.53711C53.4961 8.87695 54.0293 9.3457 54.4043 9.94336C54.7852 10.541 54.9756 11.1943 54.9756 11.9033H53.2793C53.2793 11.1299 53.0332 10.5234 52.541 10.084C52.0488 9.63867 51.3545 9.41602 50.458 9.41602C49.626 9.41602 48.9756 9.60059 48.5068 9.96973C48.0439 10.333 47.8125 10.8398 47.8125 11.4902C47.8125 12.0117 48.0322 12.4541 48.4717 12.8174C48.917 13.1748 49.6699 13.5029 50.7305 13.8018C51.7969 14.1006 52.6289 14.4316 53.2266 14.7949C53.8301 15.1523 54.2754 15.5713 54.5625 16.0518C54.8555 16.5322 55.002 17.0977 55.002 17.748C55.002 18.7852 54.5977 19.6172 53.7891 20.2441C52.9805 20.8652 51.8994 21.1758 50.5459 21.1758C49.667 21.1758 48.8467 21.0088 48.085 20.6748C47.3232 20.335 46.7344 19.8721 46.3184 19.2861C45.9082 18.7002 45.7031 18.0352 45.7031 17.291H47.3994C47.3994 18.0645 47.6836 18.6768 48.252 19.1279C48.8262 19.5732 49.5908 19.7959 50.5459 19.7959C51.4365 19.7959 52.1191 19.6143 52.5938 19.251C53.0684 18.8877 53.3057 18.3926 53.3057 17.7656C53.3057 17.1387 53.0859 16.6553 52.6465 16.3154C52.207 15.9697 51.4102 15.6299 50.2559 15.2959ZM60.8643 21.1758C59.5752 21.1758 58.5264 20.7539 57.7178 19.9102C56.9092 19.0605 56.5049 17.9268 56.5049 16.5088V16.21C56.5049 15.2666 56.6836 14.4258 57.041 13.6875C57.4043 12.9434 57.9082 12.3633 58.5527 11.9473C59.2031 11.5254 59.9062 11.3145 60.6621 11.3145C61.8984 11.3145 62.8594 11.7217 63.5449 12.5361C64.2305 13.3506 64.5732 14.5166 64.5732 16.0342V16.7109H58.1309C58.1543 17.6484 58.4268 18.4072 58.9482 18.9873C59.4756 19.5615 60.1436 19.8486 60.9521 19.8486C61.5264 19.8486 62.0127 19.7314 62.4111 19.4971C62.8096 19.2627 63.1582 18.9521 63.457 18.5654L64.4502 19.3389C63.6533 20.5635 62.458 21.1758 60.8643 21.1758ZM60.6621 12.6504C60.0059 12.6504 59.4551 12.8906 59.0098 13.3711C58.5645 13.8457 58.2891 14.5137 58.1836 15.375H62.9473V15.252C62.9004 14.4258 62.6777 13.7871 62.2793 13.3359C61.8809 12.8789 61.3418 12.6504 60.6621 12.6504ZM68.6689 9.1875V11.4902H70.4443V12.7471H68.6689V18.6445C68.6689 19.0254 68.748 19.3125 68.9062 19.5059C69.0645 19.6934 69.334 19.7871 69.7148 19.7871C69.9023 19.7871 70.1602 19.752 70.4883 19.6816V21C70.0605 21.1172 69.6445 21.1758 69.2402 21.1758C68.5137 21.1758 67.9658 20.9561 67.5967 20.5166C67.2275 20.0771 67.043 19.4531 67.043 18.6445V12.7471H65.3115V11.4902H67.043V9.1875H68.6689ZM74.5576 9.1875V11.4902H76.333V12.7471H74.5576V18.6445C74.5576 19.0254 74.6367 19.3125 74.7949 19.5059C74.9531 19.6934 75.2227 19.7871 75.6035 19.7871C75.791 19.7871 76.0488 19.752 76.377 19.6816V21C75.9492 21.1172 75.5332 21.1758 75.1289 21.1758C74.4023 21.1758 73.8545 20.9561 73.4854 20.5166C73.1162 20.0771 72.9316 19.4531 72.9316 18.6445V12.7471H71.2002V11.4902H72.9316V9.1875H74.5576ZM80.0068 21H78.3809V11.4902H80.0068V21ZM78.249 8.96777C78.249 8.7041 78.3281 8.48145 78.4863 8.2998C78.6504 8.11816 78.8906 8.02734 79.207 8.02734C79.5234 8.02734 79.7637 8.11816 79.9277 8.2998C80.0918 8.48145 80.1738 8.7041 80.1738 8.96777C80.1738 9.23145 80.0918 9.45117 79.9277 9.62695C79.7637 9.80273 79.5234 9.89062 79.207 9.89062C78.8906 9.89062 78.6504 9.80273 78.4863 9.62695C78.3281 9.45117 78.249 9.23145 78.249 8.96777ZM84.1553 11.4902L84.208 12.6855C84.9346 11.7715 85.8838 11.3145 87.0557 11.3145C89.0654 11.3145 90.0791 12.4482 90.0967 14.7158V21H88.4707V14.707C88.4648 14.0215 88.3066 13.5146 87.9961 13.1865C87.6914 12.8584 87.2139 12.6943 86.5635 12.6943C86.0361 12.6943 85.5732 12.835 85.1748 13.1162C84.7764 13.3975 84.4658 13.7666 84.2432 14.2236V21H82.6172V11.4902H84.1553ZM92.1621 16.166C92.1621 14.6836 92.5049 13.5059 93.1904 12.6328C93.876 11.7539 94.7842 11.3145 95.915 11.3145C97.0752 11.3145 97.9805 11.7246 98.6309 12.5449L98.71 11.4902H100.195V20.7715C100.195 22.002 99.8291 22.9717 99.0967 23.6807C98.3701 24.3896 97.3916 24.7441 96.1611 24.7441C95.4756 24.7441 94.8047 24.5977 94.1484 24.3047C93.4922 24.0117 92.9912 23.6104 92.6455 23.1006L93.4893 22.125C94.1865 22.9863 95.0391 23.417 96.0469 23.417C96.8379 23.417 97.4531 23.1943 97.8926 22.749C98.3379 22.3037 98.5605 21.6768 98.5605 20.8682V20.0508C97.9102 20.8008 97.0225 21.1758 95.8975 21.1758C94.7842 21.1758 93.8818 20.7275 93.1904 19.8311C92.5049 18.9346 92.1621 17.7129 92.1621 16.166ZM93.7969 16.3506C93.7969 17.4229 94.0166 18.2666 94.4561 18.8818C94.8955 19.4912 95.5107 19.7959 96.3018 19.7959C97.3271 19.7959 98.0801 19.3301 98.5605 18.3984V14.0566C98.0625 13.1484 97.3154 12.6943 96.3193 12.6943C95.5283 12.6943 94.9102 13.002 94.4648 13.6172C94.0195 14.2324 93.7969 15.1436 93.7969 16.3506ZM108.193 18.4775C108.193 18.0381 108.026 17.6982 107.692 17.458C107.364 17.2119 106.787 17.001 105.961 16.8252C105.141 16.6494 104.487 16.4385 104.001 16.1924C103.521 15.9463 103.163 15.6533 102.929 15.3135C102.7 14.9736 102.586 14.5693 102.586 14.1006C102.586 13.3213 102.914 12.6621 103.57 12.123C104.232 11.584 105.076 11.3145 106.102 11.3145C107.18 11.3145 108.053 11.5928 108.721 12.1494C109.395 12.7061 109.731 13.418 109.731 14.2852H108.097C108.097 13.8398 107.906 13.4561 107.525 13.1338C107.15 12.8115 106.676 12.6504 106.102 12.6504C105.51 12.6504 105.047 12.7793 104.713 13.0371C104.379 13.2949 104.212 13.6318 104.212 14.0479C104.212 14.4404 104.367 14.7363 104.678 14.9355C104.988 15.1348 105.548 15.3252 106.356 15.5068C107.171 15.6885 107.83 15.9053 108.334 16.1572C108.838 16.4092 109.21 16.7139 109.45 17.0713C109.696 17.4229 109.819 17.8535 109.819 18.3633C109.819 19.2129 109.479 19.8955 108.8 20.4111C108.12 20.9209 107.238 21.1758 106.154 21.1758C105.393 21.1758 104.719 21.041 104.133 20.7715C103.547 20.502 103.087 20.127 102.753 19.6465C102.425 19.1602 102.261 18.6357 102.261 18.0732H103.887C103.916 18.6182 104.133 19.0518 104.537 19.374C104.947 19.6904 105.486 19.8486 106.154 19.8486C106.77 19.8486 107.262 19.7256 107.631 19.4795C108.006 19.2275 108.193 18.8936 108.193 18.4775Z" fill="#333333"/>
<path d="M28.0435 11.7391H25.6017C25.397 11.0707 25.1289 10.425 24.8035 9.81L26.5285 8.085C26.8976 7.71587 27.1011 7.22413 27.1011 6.70044C27.1011 6.17739 26.8976 5.68565 26.5285 5.31652L24.6828 3.47087C23.9452 2.73326 22.6539 2.7313 21.915 3.47087L20.19 5.19587C19.5757 4.87043 18.9293 4.60304 18.2609 4.39761V1.95652C18.2609 0.877826 17.383 0 16.3043 0H13.6957C12.617 0 11.7391 0.877826 11.7391 1.95652V4.39826C11.0707 4.6037 10.425 4.87109 9.81 5.19652L8.08435 3.47152C7.3213 2.70848 6.07957 2.70848 5.31652 3.47152L3.47022 5.31717C2.70783 6.08022 2.70783 7.32196 3.47022 8.085L5.19522 9.81065C4.86978 10.425 4.60239 11.0713 4.39696 11.7398H1.95652C0.877826 11.7398 0 12.6176 0 13.6963V16.305C0 17.383 0.877826 18.2609 1.95652 18.2609H4.39826C4.6037 18.9293 4.87109 19.575 5.19652 20.19L3.47152 21.9157C2.70848 22.6787 2.70848 23.9204 3.47152 24.6835L5.31717 26.5298C6.08022 27.2922 7.32196 27.2922 8.085 26.5298L9.81065 24.8048C10.425 25.1302 11.0713 25.3976 11.7398 25.603V28.0435C11.7398 29.1222 12.6176 30 13.6963 30H16.305C17.3837 30 18.2615 29.1222 18.2615 28.0435V25.6017C18.93 25.3963 19.5763 25.1289 20.1907 24.8035L21.9157 26.5291C22.6552 27.268 23.9465 27.2667 24.6835 26.5291L26.5291 24.6835C26.8983 24.3143 27.1017 23.8226 27.1017 23.2996C27.1017 22.7759 26.8983 22.2848 26.5291 21.9157L24.8041 20.19C25.1296 19.5757 25.397 18.9293 25.6024 18.2609H28.0435C29.1222 18.2609 30 17.383 30 16.3043V13.6957C30 12.617 29.1222 11.7391 28.0435 11.7391ZM28.6957 16.3043C28.6957 16.6637 28.4035 16.9565 28.0435 16.9565H25.1087C24.8113 16.9565 24.5517 17.158 24.4774 17.4457C24.2465 18.3359 23.895 19.1857 23.4313 19.9709C23.2807 20.2272 23.3217 20.5533 23.5317 20.7633L25.6057 22.8378C25.7283 22.9604 25.7961 23.1241 25.7961 23.2996C25.7961 23.475 25.7283 23.6387 25.6057 23.7613L23.76 25.607C23.5148 25.8522 23.0824 25.8522 22.8365 25.607L20.7626 23.533C20.5526 23.3224 20.2265 23.282 19.9696 23.4326C19.1857 23.8957 18.3359 24.2478 17.445 24.478C17.158 24.5517 16.9565 24.8113 16.9565 25.1087V28.0435C16.9565 28.4028 16.6643 28.6957 16.3043 28.6957H13.6957C13.3363 28.6957 13.0435 28.4028 13.0435 28.0435V25.1087C13.0435 24.8113 12.842 24.5517 12.5543 24.4774C11.6641 24.2472 10.8143 23.8957 10.0291 23.432C9.92609 23.3707 9.81196 23.3413 9.69783 23.3413C9.52891 23.3413 9.36196 23.4065 9.23609 23.5324L7.16217 25.6063C6.90717 25.8607 6.4937 25.8607 6.2387 25.6063L4.39304 23.7607C4.13804 23.5057 4.13804 23.0915 4.39304 22.8372L6.46696 20.7633C6.67761 20.5526 6.7187 20.2265 6.56739 19.9709C6.10435 19.1857 5.75217 18.3365 5.52196 17.4457C5.44826 17.158 5.1887 16.9565 4.8913 16.9565H1.95652C1.59717 16.9565 1.30435 16.6637 1.30435 16.3043V13.6957C1.30435 13.3363 1.59717 13.0435 1.95652 13.0435H4.8913C5.1887 13.0435 5.44826 12.842 5.52261 12.5543C5.75283 11.6641 6.10435 10.8143 6.56804 10.0291C6.71935 9.77283 6.67826 9.44674 6.46761 9.23674L4.3937 7.16283C4.13935 6.90848 4.13935 6.49435 4.3937 6.23935L6.23935 4.3937C6.49435 4.1387 6.90783 4.13935 7.16283 4.3937L9.23674 6.46761C9.44739 6.67826 9.77283 6.72 10.0291 6.56804C10.8143 6.105 11.6635 5.75283 12.5543 5.52261C12.842 5.44826 13.0435 5.1887 13.0435 4.8913V1.95652C13.0435 1.59717 13.3363 1.30435 13.6957 1.30435H16.3043C16.6643 1.30435 16.9565 1.59717 16.9565 1.95652V4.8913C16.9565 5.1887 17.158 5.44826 17.4457 5.52261C18.3365 5.75283 19.1863 6.105 19.9702 6.56804C20.2272 6.71935 20.5533 6.67891 20.7633 6.46761L22.8372 4.3937C23.083 4.14717 23.5154 4.14783 23.7607 4.3937L25.6063 6.23935C25.7289 6.36196 25.7967 6.5263 25.7967 6.70109C25.7967 6.87587 25.7289 7.04022 25.6063 7.16283L23.5324 9.23674C23.3224 9.44739 23.2807 9.77348 23.432 10.0291C23.8957 10.8143 24.2472 11.6635 24.478 12.5543C24.5517 12.842 24.8113 13.0435 25.1087 13.0435H28.0435C28.4035 13.0435 28.6957 13.3363 28.6957 13.6957V16.3043Z" fill="#333333"/>
<path d="M15 9.13043C11.7639 9.13043 9.13043 11.7639 9.13043 15C9.13043 18.2361 11.7639 20.8696 15 20.8696C18.2367 20.8696 20.8696 18.2361 20.8696 15C20.8696 11.7639 18.2367 9.13043 15 9.13043ZM15 19.5652C12.4826 19.5652 10.4348 17.5174 10.4348 15C10.4348 12.4826 12.4826 10.4348 15 10.4348C17.5167 10.4348 19.5652 12.4826 19.5652 15C19.5652 17.5174 17.5167 19.5652 15 19.5652Z" fill="#333333"/>
</svg>
