<svg width="28" height="30" viewBox="0 0 28 30" fill="none" xmlns="http://www.w3.org/2000/svg">
<path d="M19.4991 3.64432C18.8665 3.36793 18.1296 3.65674 17.8532 4.28938C17.5768 4.92203 17.8656 5.65891 18.4983 5.9353C22.5654 7.71211 25.25 11.7348 25.25 16.2499C25.25 22.4629 20.2125 27.5 13.9999 27.5C7.78644 27.5 2.7498 22.4634 2.7498 16.2499C2.7498 11.7358 5.43341 7.7131 9.49938 5.93512C10.1319 5.65856 10.4205 4.92156 10.1439 4.28903C9.8673 3.65651 9.1303 3.36793 8.49777 3.64455C3.52963 5.81694 0.249817 10.7333 0.249817 16.2499C0.249817 23.844 6.40578 30 13.9999 30C21.5933 30 27.7501 23.8436 27.7501 16.2499C27.7501 10.7321 24.4689 5.81541 19.4991 3.64432Z" fill="#DB261B"/>
<path d="M13.9995 13.7501C14.6899 13.7501 15.2495 13.1905 15.2495 12.5001V1.25005C15.2495 0.559633 14.6899 0 13.9995 0C13.3091 0 12.7495 0.559633 12.7495 1.24999V12.5001C12.7495 13.1904 13.3091 13.7501 13.9995 13.7501Z" fill="#DB261B"/>
</svg>
