<svg width="21" height="19" viewBox="0 0 21 19" fill="none" xmlns="http://www.w3.org/2000/svg">
<path d="M20.8427 18.0865L19.0531 15.1052C18.2281 13.7292 17.7917 12.1542 17.7917 10.549V7.93752C17.7917 3.91775 14.5198 0.645874 10.5 0.645874C6.48023 0.645874 3.20836 3.91775 3.20836 7.93752V10.549C3.20836 12.1542 2.77188 13.7292 1.94688 15.1052L0.157282 18.0865C0.0604074 18.2469 0.0583079 18.448 0.150007 18.6105C0.242732 18.774 0.416657 18.8751 0.604157 18.8751H20.3958C20.5833 18.8751 20.7573 18.774 20.85 18.6105C20.9417 18.4479 20.9396 18.2469 20.8427 18.0865ZM1.52398 17.8334L2.83961 15.6406C3.76251 14.1031 4.25001 12.3427 4.25001 10.549V7.93752C4.25001 4.49065 7.05313 1.68752 10.5 1.68752C13.9469 1.68752 16.75 4.49065 16.75 7.93752V10.549C16.75 12.3427 17.2375 14.1031 18.1594 15.6406L19.476 17.8334H1.52398Z" fill="#828282"/>
</svg>
